<svg xmlns="http://www.w3.org/2000/svg" xmlns:xlink="http://www.w3.org/1999/xlink" version="1.1" x="0px" y="0px" viewBox="0 0 1000 1250" style="enable-background:new 0 0 1000 1000;" xml:space="preserve"><path d="M954.7,447H45.2c-2.9,0-5.3,2.4-5.3,5.3c0,2.9,2.4,5.3,5.3,5.3h165.9c-19.4,3.2-35.4,14.9-36,39.5  c-0.4,14.7,9.6,32.6,24.3,35.6c32,6.7,35.5-42.1,9.2-38.8c-10,1.4-13,17.9-2.8,22.2c-0.1,0,6.2,1.4,5.5-6.4  c-0.3-3.7,5.5-3.7,5.6-0.1c0,2.5-0.4,4.7-1.3,7c-2.4,6-12.6,5.3-15.1,4.7c-12.5-2.8-16.3-21.1-12.4-31.5c4.2-11.3,15.8-18.5,27-20.3  c15.5-2.4,16.7,0.8,26.9,7.8c5.2,3.7,11.6,10.5,16.6,10.8c9.2,0.6,3.2-6.8,0.3-10c-1-1.6-11.2-8.8-11.1-9.1  c0.8-3.3,27.1,4.9,29.9,5.9c11.2,3.9,20,8.1,29.6,15.6c8.2,6.3,11.9,15.1,18,23c1.9,2.5,6.3,2.3,7.7-0.1c1.4-2.4-4.3-9-5.3-11.2  c-0.6-1.4-9.5-10.9-2.1-8.3c0.9,0.4,50.6,21.3,50.4,26.1c0,0-13.3,1.6-17.6,7.5s-4.4,14,0.2,20.4c4.8,6.8,15.4,6.9,19.1-0.1  c1-2,0.3-5.5-1.3-8.4c-1.1-2.1-4.7-1.3-4.6,0.2c0.2,3.6-4.3,4.8-5.3,1.2c-1-3.2,0.3-5.5,2.8-7c2-1.2,4.5-2.2,7-2.2  c36.1-6.9,78.2,17.4,108.6-11.7c10.9-10.4,17.3-21.6,14.3-37.7c-2.1-11.6-12.8-21.5-24.3-24.6h50.7c-11.7,3-22.6,13-24.7,24.7  c-3,16,3.3,27.2,14.3,37.6c30.4,29.1,72.5,4.8,108.6,11.7c2.5,0,5,1,7,2.2c2.5,1.5,3.8,3.8,2.8,7c-1,3.6-5.5,2.4-5.3-1.2  c0.1-1.5-3.5-2.3-4.6-0.2c-1.6,2.9-2.3,6.4-1.3,8.4c3.7,7,14.3,6.9,19.1,0.1c4.6-6.4,4.5-14.5,0.2-20.4S624,520,624,520  c-0.2-4.8,49.5-25.7,50.4-26.1c7.4-2.6-1.5,6.9-2.1,8.3c-1,2.2-6.7,8.8-5.3,11.2c1.4,2.4,5.8,2.6,7.7,0.1c6.1-7.9,9.8-16.7,18-23  c9.6-7.5,18.4-11.7,29.6-15.6c2.8-1,29.1-9.2,29.9-5.9c0.1,0.3-10.1,7.5-11.1,9.1c-2.9,3.2-8.9,10.6,0.3,10  c5-0.3,11.4-7.1,16.6-10.8c10.2-7,11.4-10.2,26.9-7.8c11.2,1.8,22.8,9,27,20.3c3.9,10.4,0.1,28.7-12.4,31.5  c-2.5,0.6-12.7,1.3-15.1-4.7c-0.9-2.3-1.3-4.5-1.3-7c0.1-3.6,5.9-3.6,5.6,0.1c-0.7,7.8,5.6,6.4,5.5,6.4c10.2-4.3,7.2-20.8-2.8-22.2  c-26.3-3.3-22.8,45.5,9.2,38.8c14.7-3,24.7-20.9,24.3-35.6c-0.6-24.6-16.6-36.3-36-39.5h165.9c2.9,0,5.2-2.4,5.2-5.3  C960,449.4,957.6,447,954.7,447z M466.1,497.5c6.6-0.2,11-9.5,9.1-15.1c-1.7-4.9-3.3-9.8-9.1-8.3c-2.9,0.8-2.7,3.8-2.7,6.9  c0.1,3.6-6.8,3.1-6.8-0.5c0-2.2,0.3-4.2,0.9-6.4c1-4,10.1-8.6,16.5-5.7c13.1,6,16.5,17.8,12.4,30.6c-8.4,26.8-37.6,21.8-51.4,15.5  c-6.1-2.7-15-11.2-18.7-10.2c-1.9,0.5-6.8,3.5-4.2,6.2c1.6,1.7,17,13,12.2,12.2c-26.7-4.1-54.6-17.4-73-39.5  c-1.1-1.3-10.2-11.8-12.3-5.5c-1.7,5,13.8,13.6,11.7,17.8c-0.9,1.8-57.5-31.3-108.5-37.9h218.5c-2.6,0.8-5.1,2.1-7.4,3.9  C438.5,473.6,446.1,498.1,466.1,497.5z M649.3,495.5c-2.1-4.2,13.4-12.8,11.7-17.7c-2.1-6.3-11.2,4.2-12.3,5.5  c-18.4,22.1-46.3,35.4-73,39.5c-4.8,0.8,10.6-10.5,12.2-12.2c2.6-2.7-2.3-5.7-4.2-6.2c-3.7-1-12.6,7.5-18.7,10.2  c-13.8,6.3-43,11.3-51.4-15.5c-4.1-12.8-0.7-24.6,12.4-30.6c6.4-2.9,15.5,1.7,16.5,5.7c0.6,2.2,0.9,4.2,0.9,6.4  c0,3.6-6.9,4.1-6.8,0.5c0-3.1,0.2-6.1-2.7-6.9c-5.8-1.5-7.4,3.4-9.1,8.3c-1.9,5.6,2.5,14.9,9.1,15.1c20,0.6,27.6-23.9,12.8-36  c-2.4-1.9-5-3.2-7.7-4h218.8C706.8,464.2,650.2,497.3,649.3,495.5z"/></svg>