<svg xmlns="http://www.w3.org/2000/svg" xmlns:xlink="http://www.w3.org/1999/xlink" version="1.1" x="0px" y="0px" viewBox="0 0 130 162.5" xml:space="preserve"><g><path d="M1.2464,61.7262c1.0369,3.2138,3.1883,5.668,7.5926,6.8574c2.4515,0.6844,5.0916,0.8542,7.7628,0.9017
c2.663,0.0511,5.4267,0.0583,8.2598-0.0376c2.1206-0.0748,4.2062-0.212,6.2374-0.4196c-0.4377,0.8645-1.0578,1.6333-1.8456,2.2521
c-1.9843,0.8353-3.9374,0.7727-5.9139,0.6013c-0.0991,0.0184-2.3344-0.4706-3.0068,1.4964
c-0.6635,1.9345,1.7626,4.1796,4.5714,2.3932c1.0209-0.649,2.9208-1.8574,4.7051-4.1262c0.9167-0.73,1.6365-1.647,2.0999-2.6867
c3.1704-0.3484,6.2052-0.8677,9.0193-1.5993c1.1946-0.3103,2.3541-0.6622,3.4624-1.0153c1.0965-0.3282,2.1492-0.6953,3.1915-0.9569
c0.2263-0.0655,0.4463-0.1198,0.6701-0.1804c-0.2644,1.0072-0.7747,1.9449-1.4899,2.7485c-1.9991,1.2989-4.2502,1.5-5.7431,1.6319
c-0.1218,0.0438-2.2946-0.0967-2.6879,1.9174c-0.1868,0.9577,0.2797,1.8603,1.2176,2.3554c0.829,0.4381,1.7953,0.461,2.6874-0.0068
c1.4494-0.7597,3.7193-3.3563,4.9144-5.5847c0.8234-0.931,1.3962-2.0301,1.6537-3.2104c1.6192-0.4172,3.1677-0.7271,4.6048-0.995
c1.1871-0.2031,2.2973-0.3482,3.3359-0.4547l8.4633,1.308l8.464-1.3078c1.0366,0.1062,2.1443,0.2509,3.3288,0.4535
c1.439,0.2679,2.9898,0.5783,4.6114,0.9962c0.2576,1.18,0.83,2.2782,1.6526,3.2089c1.3641,2.5437,3.0243,4.0628,3.917,4.8785
c1.0788,0.99,2.3915,1.3983,3.6858,0.7143c0.9379-0.4951,1.4049-1.3981,1.2176-2.3559c-0.3852-1.9764-2.5887-1.8813-2.6879-1.9169
c-1.4928-0.1319-3.7435-0.3328-5.7426-1.6316c-0.7152-0.8035-1.2257-1.7413-1.4903-2.7486
c0.2206,0.0599,0.4374,0.1132,0.6604,0.1777c3.2639,0.8192,6.0373,2.3471,15.6451,3.4904
c0.4617,1.0746,1.1968,2.0212,2.1386,2.7712c1.783,2.2667,3.6833,3.4759,4.704,4.1253c1.2541,0.7955,2.6043,0.9568,3.754,0.0634
c0.8087-0.6277,1.1218-1.569,0.8179-2.4566c-0.6723-1.961-2.9076-1.478-3.0068-1.4964c-1.9941,0.1727-3.934,0.2329-5.9144-0.6015
c-0.8139-0.6392-1.4509-1.4378-1.8894-2.3375c5.4309,0.6158,10.2992,0.7551,14.5366,0.5932
c5.3652-0.2429,10.5668-0.6877,13.8447-4.8078c2.4658-3.1283,2.0615-6.9249,0.3737-8.6787
c-1.1227-1.4789-3.4015-2.6699-5.7287-2.4648c-2.153,0.1873-4.1475,1.3424-4.1475,3.5661c0,1.7933,1.4537,3.2471,3.247,3.2471
c3.7426,0,4.219-4.9184,1.448-6.1924c4.7141,0.4112,7.3372,5.5235,3.8323,9.7399c-3.0589,3.6677-8.0471,3.9385-12.9238,4.1142
c-3.268,0.1001-5.9782,0.0165-9.1367-0.1645c0.5552-0.9222,1.2811-1.7142,2.144-2.3149c0.8029-0.2815,1.6393-0.4214,2.5559-0.4214
c2.7139,0,4.7172,1.5805,5.8674-0.9166c0.4026-0.874,0.2701-1.8642-0.3455-2.5843c-0.7518-0.8797-1.932-1.1651-3.4607-0.3088
c-1.0337,0.5788-2.9574,1.6561-4.9523,3.8489c-0.0052,0.0058-0.0041,0.014-0.0087,0.0202
c-0.9626,0.684-1.7736,1.5819-2.3649,2.6386c-4.2859-0.2707-8.7302-0.7586-12.9666-1.6571
c0.6481-0.7763,1.4258-1.4182,2.3046-1.8742c0.4925-0.1037,1.0025-0.1598,1.5185-0.1598c1.5622,0,2.8955,0.4665,3.8692,0.8067
c0.0991-0.0082,2.0949,1.0595,3.2256-1.0269c0.4302-0.7942,0.3959-1.7146-0.092-2.4638c-0.637-0.9783-1.7671-1.4049-3.3911-0.7545
c-1.0983,0.4387-3.1419,1.2554-5.4048,3.1704c-0.9995,0.5261-1.8876,1.2686-2.5984,2.18c-3.532-0.7863-5.3415-1.4893-7.1775-1.9027
c-1.9246-0.5038-3.7587-0.8268-5.4609-1.0866c0.7486-0.8536,1.6633-1.5251,2.6789-1.9641
c1.9578-0.2686,3.5518,0.2588,5.3294,1.0254c0.0991,0.0046,2.1081,1.2136,3.3369-0.8745c0.4448-0.7555,0.4578-1.6256,0.0353-2.3864
c-0.5603-1.01-1.6553-1.5284-3.3301-0.9926c-1.1275,0.3608-3.2262,1.0332-5.6162,2.782c-1.1579,0.5088-2.2011,1.2934-3.0214,2.3034
c-0.0042,0.0051-0.0016,0.0122-0.0053,0.0177c-0.9738-0.1282-1.8984-0.2178-2.7746-0.2778l-9.1062-1.4085l-9.1108,1.409
c-0.8748,0.06-1.7979,0.1495-2.77,0.2774c-0.0037-0.0054-0.0011-0.0126-0.0053-0.0178c-0.8219-1.0119-1.8677-1.7979-3.0289-2.3068
c-0.0111-0.0067-0.0176-0.019-0.0297-0.024c-3.8702-2.8169-6.757-2.9382-6.8562-2.971c-1.842,0-2.9563,1.9998-2.0176,3.5953
c1.23,2.0901,3.2391,0.8791,3.3383,0.874c1.788-0.7714,3.3737-1.2936,5.3283-1.0248c1.0159,0.4389,1.9302,1.1104,2.6787,1.9641
c-3.974,0.6072-5.3991,1.0607-8.7445,1.9911c-1.1023,0.3268-2.2261,0.646-3.399,0.9315c-0.1546,0.0376-0.3154,0.0698-0.4714,0.1062
c-0.807-1.0557-1.6978-1.7572-2.6281-2.2245c-0.011-0.0075-0.0174-0.0203-0.0296-0.0261c-2.2489-1.8932-4.2762-2.7029-5.368-3.1394
c-1.6388-0.6547-2.761-0.2149-3.392,0.7545c-0.4878,0.7487-0.5222,1.6696-0.092,2.4633c1.1204,2.0674,3.1263,1.0271,3.2255,1.0279
c0.9732-0.3407,2.3065-0.8072,3.8697-0.8072c0.52,0,1.0342,0.0564,1.5302,0.1618c0.8281,0.412,1.6212,1.0196,2.3447,1.9113
c-3.9855,0.8884-8.3815,1.4042-13.0033,1.6323c-0.6769-1.2248-1.4981-2.0714-2.3921-2.6786
c-0.0128-0.0126-0.0215-0.0288-0.0368-0.0385c-1.9803-2.1633-3.8857-3.2299-4.9121-3.8048
c-2.77-1.5475-4.7232,0.9044-3.8068,2.8926c0.9252,2.0096,2.9018,1.2724,3.001,1.2834c0.739-0.1544,1.7505-0.3664,2.8665-0.3664
c0.9207,0,1.7607,0.1407,2.5674,0.4248c0.7976,0.5354,1.5306,1.2742,2.147,2.3127c-0.3344,0.0148-0.6663,0.0328-1.0029,0.0446
c-2.7975,0.0947-5.5358,0.0982-8.184,0.0675c-2.6303-0.0253-5.1514-0.1682-7.423-0.7659c-3.9621-1.0134-5.8226-3.0465-6.837-5.838
c-0.9916-4.1279,1.8714-6.9083,5.1986-7.1966c-2.7677,1.2774-2.2815,6.19,1.4538,6.19c3.8972,0,4.2439-5.3217,1.0786-6.3191
c-0.4822-0.2148-1.1416-0.4202-1.9816-0.4916c-2.3695-0.2077-4.6517,1.0252-5.7375,2.4541
c-0.3161,0.3247-0.5135,0.7538-0.766,1.1598C0.8342,58.8483,0.9004,60.1398,1.2464,61.7262z M24.6358,75.35
c-1.2962,0.825-2.3799,0.7115-3.1796,0.0905c-0.6441-0.5004-0.8881-1.2113-0.6514-1.901c0.5466-1.5956,2.3841-1.1401,2.4914-1.1605
c1.5034,0.1307,2.7459,0.1925,4.2378-0.0798c-0.6104,0.2647-1.2274,0.3528-1.0906,0.7095
c0.0382,0.0987,0.1341,0.1587,0.2347,0.1587c0.03,0,0.061-0.0053,0.0905-0.0169c0.4527-0.1747,0.9176-0.3576,1.3606-0.5726
C26.7517,74.0007,25.4248,74.8481,24.6358,75.35z M41.7992,73.4132c-0.7148,0.3746-1.5235,0.3717-2.217,0.0048
c-0.7361-0.3886-1.1039-1.0855-0.9611-1.8187c0.3079-1.5748,2.1421-1.4816,2.2417-1.5157
c1.1047-0.0975,2.6118-0.2381,4.1504-0.8077c-0.2835,0.1868-0.5724,0.3676-0.8591,0.5401
c-0.1181,0.0711-0.1563,0.2245-0.0852,0.3426c0.0469,0.0779,0.1297,0.121,0.2139,0.121c0.044,0,0.0886-0.0116,0.1287-0.0358
c0.4154-0.2502,0.842-0.5114,1.2449-0.8023C44.805,70.7002,42.967,72.8017,41.7992,73.4132z M91.3957,71.5993
c0.1432,0.7332-0.225,1.4301-0.9611,1.8187c-0.8944,0.4724-1.9858,0.395-3.1157-0.6412c-0.6892-0.6305-1.8481-1.6943-2.9584-3.3347
c0.4047,0.2919,0.8306,0.5523,1.2447,0.8017c0.0402,0.0242,0.0847,0.0358,0.1287,0.0358c0.0842,0,0.167-0.0431,0.2139-0.121
c0.0711-0.1181,0.0329-0.2715-0.0852-0.3426c-0.286-0.1723-0.5745-0.3526-0.8581-0.5395c1.5384,0.569,3.045,0.7096,4.1495,0.8071
C89.2831,70.1278,91.0818,69.9939,91.3957,71.5993z M106.7211,72.379c0.1213,0.0205,1.9457-0.4328,2.4914,1.161
c0.2362,0.6896-0.0073,1.4001-0.6514,1.9005c-0.7997,0.619-1.8718,0.7397-3.1801-0.0905
c-0.7888-0.5017-2.1154-1.3496-3.4923-2.7716c0.4394,0.2129,0.9004,0.395,1.3489,0.5682l0.0704-0.1512l0.1097-0.3143
c-0.3112-0.1203-0.6254-0.2478-0.9343-0.3817C103.9722,72.5711,105.2145,72.5099,106.7211,72.379z M111.2247,61.7843
c1.026-0.5744,2.0706-0.6991,2.8374,0.1975c0.4951,0.5788,0.5967,1.3459,0.2715,2.051c-0.9265,2.0098-2.5966,0.6267-5.414,0.6267
c-0.3013,0-0.5971,0.0182-0.8888,0.0477c0.3262-0.1207,0.6558-0.2313,0.9798-0.3332c0.1312-0.0411,0.2042-0.1815,0.1631-0.3131
c-0.0411-0.1312-0.1795-0.2028-0.3131-0.1631c-0.4159,0.1307-0.8432,0.2708-1.2652,0.4412
C109.0827,62.9872,110.4262,62.2313,111.2247,61.7843z M98.3085,61.1904c1.0901-0.4367,2.1448-0.4235,2.7876,0.5638
c0.3862,0.5924,0.4128,1.3226,0.0711,1.9528c-0.909,1.6767-2.5229,0.7947-2.6221,0.7937c-0.9067-0.3167-2.2622-0.776-3.8142-0.8188
c0.3452-0.0799,0.695-0.1486,1.0387-0.2096l0.0073-0.0015c0.136-0.0242,0.2226-0.1529,0.1984-0.2889
c-0.0242-0.1355-0.1592-0.2294-0.2933-0.2013c-0.4291,0.076-0.8698,0.1597-1.3041,0.2723
C96.0295,62.1039,97.459,61.5295,98.3085,61.1904z M85.6841,58.3709c1.129-0.3598,2.1712-0.268,2.7416,0.7593
c0.3344,0.6025,0.3238,1.2922-0.029,1.8913c-0.9926,1.6873-2.61,0.6754-2.7092,0.6688c-0.8948-0.3857-2.1811-0.9355-3.7136-1.0916
c0.34-0.0529,0.6831-0.0953,1.0204-0.1309l0.0044-0.0005c0.137-0.0145,0.2342-0.137,0.2197-0.2739
c-0.0145-0.1374-0.1452-0.2367-0.2763-0.2221c-0.4346,0.0455-0.882,0.0979-1.3243,0.1803
C83.3449,59.1235,84.8126,58.6502,85.6841,58.3709z M44.3303,61.6899c-0.2452,0.0892-0.5745,0.3097-1.0816,0.3097h-0.0005
c-0.649,0-1.2728-0.3751-1.628-0.9786c-0.7352-1.2485,0.1156-2.8423,1.5874-2.8423c0.0993,0.0309,1.9533,0.0451,5.1917,1.9728
c-0.4435-0.0824-0.8918-0.1348-1.3273-0.1808c-0.0104,0.0993-0.0627,0.5958-0.0523,0.4965c0.3455,0.0363,0.6973,0.08,1.0456,0.1349
C46.531,60.7588,45.2281,61.3025,44.3303,61.6899z M31.4712,64.5012c-0.1014-0.0071-1.7128,0.8817-2.6216-0.7942
c-0.3417-0.6301-0.3151-1.3604,0.0711-1.9528c0.6401-0.9829,1.6953-1.0005,2.7885-0.5638
c0.8561,0.3423,2.3028,0.9245,3.9717,2.0926c-0.4517-0.1251-0.9048-0.2243-1.354-0.3039c-0.137-0.0213-0.2657,0.0668-0.2894,0.2023
c-0.0242,0.136,0.0668,0.2652,0.2023,0.2894c0.3315,0.0587,0.665,0.1316,0.9985,0.2143
C33.7063,63.7363,32.3683,64.1873,31.4712,64.5012z M21.0972,64.6594c-1.1678,0-2.2088,0.2178-2.9686,0.377
c-0.0991-0.0144-1.6877,0.6401-2.4454-1.0037c-0.6909-1.5011,0.6814-3.6058,3.1094-2.2484
c0.8052,0.4508,2.1653,1.2174,3.6678,2.5906c-0.432-0.1827-0.8688-0.34-1.3042-0.4772c-0.1321-0.0397-0.2715,0.0319-0.3131,0.1631
c-0.0416,0.1316,0.0315,0.2715,0.1631,0.3131c0.3117,0.0982,0.6237,0.21,0.9345,0.3308
C21.6633,64.6781,21.3831,64.6594,21.0972,64.6594z"/><path d="M47.0443,60.2192c0.0104-0.0992,0.0366-0.3474,0.0261-0.2483L47.0443,60.2192z"/><polygon points="103.3431,72.9195 103.3079,72.9953 103.2531,73.1523"/></g></svg>